<svg width="211" height="216" viewBox="0 0 211 216" fill="none" xmlns="http://www.w3.org/2000/svg">
<path fill-rule="evenodd" clip-rule="evenodd" d="M101.894 120.113C128.774 120.113 150.595 98.4799 150.595 71.8355C150.595 66.484 149.703 61.3462 148.082 56.5389H55.7071C54.0863 61.3462 53.1937 66.4872 53.1937 71.8355C53.1937 98.4799 75.0146 120.113 101.894 120.113Z" fill="#484848"/>
<path fill-rule="evenodd" clip-rule="evenodd" d="M101.894 120.113C128.774 120.113 150.595 98.4799 150.595 71.8355C150.595 66.484 149.703 61.3462 148.082 56.5389H55.7071C54.0863 61.3462 53.1937 66.4872 53.1937 71.8355C53.1937 98.4799 75.0146 120.113 101.894 120.113Z" stroke="#484848" stroke-width="1.5" stroke-linecap="round" stroke-linejoin="round"/>
<path d="M101.218 71.1511C93.3784 71.1511 87.0145 64.7499 87.0145 56.8716C87.0145 48.9901 93.3784 42.5922 101.218 42.5922C109.058 42.5922 115.422 48.9901 115.422 56.8716" stroke="white" stroke-width="1.5" stroke-linecap="round" stroke-linejoin="round"/>
<path d="M87.0145 85.4312C87.0145 93.3159 93.3784 99.7106 101.218 99.7106C109.058 99.7106 115.422 93.3159 115.422 85.4312C115.422 77.5496 109.058 71.1517 101.218 71.1517" stroke="white" stroke-width="1.5" stroke-linecap="round" stroke-linejoin="round"/>
<path d="M101.219 33.0718V107.874" stroke="white" stroke-width="1.5" stroke-linecap="round" stroke-linejoin="round"/>
<path fill-rule="evenodd" clip-rule="evenodd" d="M55.5021 7.4823C67.0634 7.4823 76.453 16.9188 76.453 28.5418C76.453 40.1681 67.0634 49.6046 55.5021 49.6046C43.9408 49.6046 34.5544 40.1681 34.5544 28.5418C34.5544 16.9188 43.9408 7.4823 55.5021 7.4823Z" fill="#484848"/>
<path fill-rule="evenodd" clip-rule="evenodd" d="M55.7064 56.5389C62.2765 37.572 80.4338 23.9211 101.784 23.9211C122.919 23.9211 140.928 37.2999 147.659 55.9688" fill="white"/>
<path d="M55.7064 56.5389C62.2765 37.572 80.4338 23.9211 101.784 23.9211C122.919 23.9211 140.928 37.2999 147.659 55.9688" stroke="#484848" stroke-width="1.5" stroke-linecap="round" stroke-linejoin="round"/>
<path d="M86.9185 56.5389C87.2826 48.9846 93.5015 42.9625 101.106 42.9625C108.456 42.9625 114.51 48.5861 115.239 55.7842" stroke="#484848" stroke-width="1.5" stroke-linecap="round" stroke-linejoin="round"/>
<path d="M101.107 33.4421V56.076" stroke="#484848" stroke-width="1.5" stroke-linecap="round" stroke-linejoin="round"/>
<path fill-rule="evenodd" clip-rule="evenodd" d="M160.531 1.07617C167.172 1.07617 172.56 6.49575 172.56 13.1657C172.56 19.8422 167.172 25.2618 160.531 25.2618C153.893 25.2618 148.506 19.8422 148.506 13.1657C148.506 6.49575 153.893 1.07617 160.531 1.07617Z" fill="white"/>
<path fill-rule="evenodd" clip-rule="evenodd" d="M160.531 1.07617C167.172 1.07617 172.56 6.49575 172.56 13.1657C172.56 19.8422 167.172 25.2618 160.531 25.2618C153.893 25.2618 148.506 19.8422 148.506 13.1657C148.506 6.49575 153.893 1.07617 160.531 1.07617Z" stroke="#484848" stroke-width="1.5" stroke-linecap="round" stroke-linejoin="round"/>
<path d="M1.03113 60.1042C1.03113 88.2258 12.1349 115.194 31.9161 135.078C51.6941 154.958 78.5223 166.128 106.485 166.128H190.849V57.3475H1.03113" stroke="#484848" stroke-width="1.5" stroke-linecap="round" stroke-linejoin="round"/>
<path fill-rule="evenodd" clip-rule="evenodd" d="M18.6935 179.435C28.4342 179.435 36.3577 187.391 36.3577 197.194C36.3577 206.999 28.4342 214.959 18.6935 214.959C8.93658 214.959 1.03247 206.999 1.03247 197.194C1.03247 187.391 8.93658 179.435 18.6935 179.435Z" fill="#484848"/>
<path fill-rule="evenodd" clip-rule="evenodd" d="M18.6935 179.435C28.4343 179.435 36.3577 187.391 36.3577 197.194C36.3577 206.999 28.4343 214.959 18.6935 214.959C8.93658 214.959 1.03247 206.999 1.03247 197.194C1.03247 187.391 8.93658 179.435 18.6935 179.435Z" stroke="#484848" stroke-width="1.5" stroke-linecap="round" stroke-linejoin="round"/>
<path d="M173.187 179.435C182.928 179.435 190.848 187.391 190.848 197.194C190.848 203.54 187.529 209.115 182.544 212.257" stroke="#484848" stroke-width="1.4" stroke-linecap="round" stroke-linejoin="round"/>
<path fill-rule="evenodd" clip-rule="evenodd" d="M173.186 179.435C182.943 179.435 190.847 187.391 190.847 197.194C190.847 206.999 182.943 214.959 173.186 214.959C163.426 214.959 155.521 206.999 155.521 197.194C155.521 187.391 163.426 179.435 173.186 179.435Z" fill="#484848"/>
<path fill-rule="evenodd" clip-rule="evenodd" d="M173.186 179.435C182.943 179.435 190.847 187.391 190.847 197.194C190.847 206.999 182.943 214.959 173.186 214.959C163.426 214.959 155.521 206.999 155.521 197.194C155.521 187.391 163.426 179.435 173.186 179.435Z" stroke="#484848" stroke-width="1.5" stroke-linecap="round" stroke-linejoin="round"/>
<path d="M18.6934 179.435H177.629C181.126 179.435 184.502 178.032 186.987 175.538C189.468 173.044 190.85 169.658 190.85 166.134V166.131" stroke="#484848" stroke-width="1.5" stroke-linecap="round" stroke-linejoin="round"/>
<path d="M190.849 57.3488C190.849 53.3416 192.441 49.4996 195.257 46.6651C198.074 43.8306 201.902 42.2401 205.887 42.2401H209.896" stroke="#484848" stroke-width="1.5" stroke-linecap="round" stroke-linejoin="round"/>
</svg>
