<svg width="138" height="48" viewBox="0 0 138 48" fill="none" xmlns="http://www.w3.org/2000/svg">
<g filter="url(#filter0_d_941_1018)">
<path fill-rule="evenodd" clip-rule="evenodd" d="M78.491 14.3223C80.0858 14.3223 81.0685 15.1814 81.6168 15.9043L81.773 16.1128L81.8669 15.8341C82.1157 15.1185 82.6112 14.7267 83.2547 14.7267H84.8337L84.82 31.3891C84.82 37.7412 81.4454 40 78.5547 40C77.1512 40 75.5976 39.4217 74.4051 38.4567L74.168 38.265L74.549 36.7773L74.8184 35.761C75.111 34.6589 75.5318 34.3854 76.2528 34.7165C76.8044 35.0214 77.6289 35.3587 78.5349 35.3587C80.3989 35.3587 81.429 34.0187 81.429 31.5944V31.0894L81.1665 31.3891C80.488 32.1717 79.6355 32.5551 78.5547 32.5551C75.3906 32.5551 73.1805 28.7782 73.1805 23.3711C73.1805 17.9598 75.3173 14.3223 78.491 14.3223ZM97.1386 14.4218C98.8896 14.4218 101.495 15.5564 101.495 18.6806V21.0484L99.7189 21.0442C99.5701 21.0442 98.8142 20.9772 98.5641 19.7063L98.549 19.6131C98.4394 19.0526 97.7472 18.7183 97.1386 18.7183C95.2622 18.7183 93.9519 20.8305 93.9519 23.8478C93.9519 27.3439 95.6412 28.9123 97.3161 28.9123C99.0411 28.9123 100.375 26.9312 100.538 26.6755L100.555 26.6493L100.74 26.3486L102.147 29.9076L102.054 30.0836C102.037 30.114 100.288 33.3419 97.0694 33.3419C93.3604 33.3419 90.6719 29.367 90.6719 23.8845C90.6719 18.4051 93.3892 14.4218 97.1386 14.4218ZM22.564 14.404C26.1777 14.404 28.8004 18.3611 28.8004 23.8122C28.8004 29.2623 26.1777 33.2204 22.564 33.2204C18.9633 33.2204 16.3509 29.2623 16.3509 23.8122C16.3509 18.3611 18.9633 14.404 22.564 14.404ZM35.8955 14.404C39.5051 14.404 42.1333 18.3611 42.1333 23.8122C42.1333 29.2623 39.5051 33.2204 35.8955 33.2204C32.2914 33.2204 29.679 29.2623 29.679 23.8122C29.679 18.3611 32.2921 14.404 35.8955 14.404ZM108.649 14.404C112.258 14.404 114.886 18.3611 114.886 23.8122C114.886 29.2623 112.258 33.2204 108.649 33.2204C105.046 33.2204 102.433 29.2623 102.433 23.8122C102.433 18.3611 105.046 14.404 108.649 14.404ZM57.0089 14.7749C58.2123 14.7749 58.7949 15.6759 58.7949 17.5324L58.788 32.9312H58.7812V32.9375H57.9862L57.1864 32.9417C57.1652 32.9417 57.1467 32.9375 57.1247 32.9375H55.408V28.8201H55.4094L55.3998 14.7749H57.0089ZM44.9589 7.78784C45.8978 7.78784 46.7682 8.07805 46.7682 10.2101V20.8671H47.313C47.7215 20.8671 47.9942 20.7131 48.1285 20.4114L50.5162 14.7749H54.3732L51.1953 21.9808C51.0329 22.3465 50.8637 22.6618 50.6992 22.9269L50.584 23.0945L50.6937 23.2705C50.8637 23.5408 51.0247 23.8824 51.1645 24.2836L52.4584 28.0197L54.4081 32.9438H51.7882C50.8013 32.9438 50.2777 32.6903 49.75 31.2183L47.8654 25.7881C47.7434 25.4665 47.4782 25.3973 47.0889 25.3973H46.7682V32.9428H43.3518L43.3477 7.78889H44.9582L44.9589 7.78784ZM67.7548 14.3621C70.5331 14.3621 72.001 16.7896 72.001 21.3816L72.0065 32.9365H70.3905C69.1569 32.9365 68.5861 32.0543 68.5861 30.1737V22.2616C68.5861 20.0562 68.1728 19.2024 67.1126 19.2024C65.7961 19.2024 64.7414 20.4219 64.3645 22.3842C64.2219 23.0317 64.1527 23.742 64.1527 24.5623V32.9365H60.759L60.7494 14.7675H62.2804C63.207 14.7675 63.8224 15.3553 64.004 16.4229L64.078 16.8566L64.2857 16.5381C64.9066 15.5428 66.0161 14.3621 67.7548 14.3621ZM130.047 14.4207L130.206 14.4249C132.722 14.5192 134 16.8598 134 21.3805L133.997 32.9312H132.471C131.273 32.9312 130.74 32.1161 130.74 30.2869V22.205C130.74 19.8886 130.37 19.0253 129.373 19.0253C127.993 19.0253 127.104 20.9143 126.842 22.7593C126.714 23.413 126.66 24.0689 126.66 24.9437V32.9312H123.395V22.205C123.395 20.1956 122.965 19.1563 122.084 19.0285C120.655 18.821 119.803 20.8965 119.494 22.8274C119.38 23.5513 119.322 24.2459 119.322 24.9437V32.9312H116.082L116.095 14.8356H117.521C118.411 14.8356 118.999 15.3888 119.177 16.3967L119.302 17.0955L119.623 16.5633C120.115 15.767 121.172 14.4218 122.75 14.4218C124.255 14.4218 125.337 15.3102 125.965 17.0588L126.158 17.591L126.404 17.1154C127.278 15.4286 128.64 14.4228 130.048 14.4228L130.047 14.4207ZM6.07447 7.79832H9.62443C12.7358 7.79832 14.7452 10.3515 14.7452 14.3044C14.7452 16.888 13.8954 18.3831 13.3882 19.0484L12.9524 19.6173L13.452 20.0468C14.6643 21.0872 15.3846 23.1343 15.3846 25.5314C15.3846 29.9778 13.1538 32.8506 9.69502 32.8506L5.63586 32.8516L5.62901 32.8506H4V10.4092C4.00891 8.99373 4.74837 7.84756 5.67081 7.79832H6.07447ZM22.564 18.8063C20.8616 18.8063 19.6802 20.8671 19.6802 23.8132C19.6802 26.7572 20.8616 28.8212 22.564 28.8212C24.2999 28.8212 25.4711 26.8054 25.4711 23.8132C25.4711 20.8671 24.2759 18.8053 22.564 18.8053V18.8063ZM35.8955 18.8063C34.1939 18.8063 33.0097 20.8671 33.0097 23.8132C33.0097 26.7572 34.1939 28.8212 35.8949 28.8212C37.6315 28.8212 38.8027 26.8054 38.8027 23.8132C38.8027 20.8671 37.6034 18.8053 35.8955 18.8053V18.8063ZM108.649 18.8063C106.948 18.8063 105.762 20.8671 105.762 23.8132C105.762 26.7572 106.948 28.8212 108.649 28.8212C110.385 28.8212 111.558 26.8054 111.558 23.8132C111.558 20.8671 110.357 18.8053 108.649 18.8053L108.649 18.8063ZM9.92186 21.8006H8.03928C7.43415 21.9305 7.16002 22.489 7.16002 23.567V28.6074L9.92255 28.6127C11.2898 28.6116 12.1375 27.3377 12.1375 25.1899C12.1375 23.0945 11.2665 21.8006 9.92186 21.8006ZM78.9776 18.8902C76.8099 18.8902 76.6406 22.2166 76.6406 23.236C76.6406 25.5493 77.3013 28.0197 79.1558 28.0197C80.2215 28.0197 81.492 27.2203 81.492 23.4067C81.492 19.3637 80.0563 18.8912 78.9776 18.8912V18.8902ZM9.6025 11.9052H8.18868C7.4828 11.9765 7.16002 12.5276 7.16002 13.6895V17.9252H9.64636C11.0437 17.9252 11.5413 16.2772 11.5413 14.865C11.5413 13.0137 10.8155 11.9052 9.6025 11.9052Z" fill="black"/>
<path d="M90.5 31C90.5 32.1046 89.6046 33 88.5 33C87.3954 33 86.5 32.1046 86.5 31C86.5 29.8954 87.3954 29 88.5 29C89.6046 29 90.5 29.8954 90.5 31Z" fill="black"/>
<path d="M58.9 11C58.9 12.1046 58.0046 13 56.9 13C55.7955 13 54.9 12.1046 54.9 11C54.9 9.89543 55.7955 9 56.9 9C58.0046 9 58.9 9.89543 58.9 11Z" fill="black"/>
</g>
<defs>
<filter id="filter0_d_941_1018" x="0" y="0" width="138" height="55" filterUnits="userSpaceOnUse" color-interpolation-filters="sRGB">
<feFlood flood-opacity="0" result="BackgroundImageFix"/>
<feColorMatrix in="SourceAlpha" type="matrix" values="0 0 0 0 0 0 0 0 0 0 0 0 0 0 0 0 0 0 127 0" result="hardAlpha"/>
<feOffset dy="4"/>
<feGaussianBlur stdDeviation="2"/>
<feComposite in2="hardAlpha" operator="out"/>
<feColorMatrix type="matrix" values="0 0 0 0 0 0 0 0 0 0 0 0 0 0 0 0 0 0 0.25 0"/>
<feBlend mode="normal" in2="BackgroundImageFix" result="effect1_dropShadow_941_1018"/>
<feBlend mode="normal" in="SourceGraphic" in2="effect1_dropShadow_941_1018" result="shape"/>
</filter>
</defs>
</svg>
