<svg width="24" height="28" viewBox="0 0 24 28" fill="none" xmlns="http://www.w3.org/2000/svg">
<path fill-rule="evenodd" clip-rule="evenodd" d="M17.7334 18.6532L13.4365 14.1554V13.8401L17.7334 9.34229L17.8266 9.40237L22.9093 12.4259C24.3635 13.2837 24.3635 14.7005 22.9093 15.5696L17.8266 18.5931L17.7334 18.6532Z" fill="#FFE000"/>
<path fill-rule="evenodd" clip-rule="evenodd" d="M17.8275 18.5932L13.4357 13.9978L0.474365 27.5679C0.948835 28.0991 1.74544 28.1601 2.63445 27.6411L17.8266 18.5932" fill="#FF3A44"/>
<path fill-rule="evenodd" clip-rule="evenodd" d="M17.8273 9.4025L2.63347 0.368513C1.74447 -0.163564 0.945361 -0.0904144 0.473389 0.441662L13.4364 13.9979L17.8265 9.4025H17.8273Z" fill="#06E775"/>
<path opacity="0.2" d="M17.7333 18.4956L2.64519 27.4704C1.80197 27.9781 1.05031 27.9424 0.565019 27.4808L0.485107 27.5653L0.565019 27.6384C1.05031 28.0974 1.80197 28.1348 2.64519 27.6271L17.8365 18.5931L17.7333 18.4956Z" fill="black"/>
<path opacity="0.12" d="M22.9094 15.412L17.7202 18.4956L17.8143 18.5932L22.8961 15.5696C23.6244 15.1351 23.9824 14.5647 23.9824 13.9978C23.9383 14.5194 23.5678 15.0132 22.9086 15.412H22.9094Z" fill="black"/>
<path opacity="0.25" fill-rule="evenodd" clip-rule="evenodd" d="M2.63455 0.526055L22.9094 12.5836C23.567 12.9719 23.9382 13.4796 23.9957 13.9978C23.9957 13.4309 23.6377 12.8605 22.9094 12.4259L2.63455 0.369306C1.18035 -0.502394 0 0.224748 0 1.96467V2.12229C0 0.379756 1.18035 -0.333454 2.63455 0.526055Z" fill="white"/>
<path fill-rule="evenodd" clip-rule="evenodd" d="M0.474469 0.42778C0.173972 0.767404 0 1.28555 0 1.96392V26.0337C0 26.7129 0.173971 27.231 0.48529 27.5576L0.565201 27.6308L13.4475 14.1442V13.8429L0.555212 0.35376L0.474469 0.42778Z" fill="#00D2FF"/>
</svg>
